<?xml version="1.0" encoding="utf-8"?><!DOCTYPE svg PUBLIC "-//W3C//DTD SVG 1.1//EN" "http://www.w3.org/Graphics/SVG/1.1/DTD/svg11.dtd"><svg version="1.1" xmlns="http://www.w3.org/2000/svg" xmlns:xlink="http://www.w3.org/1999/xlink" width="32" height="32" viewBox="0 0 32 32" data-tags="adobephotoshop"><g fill="#444" transform="scale(0.03125 0.03125)"><path fill="rgb(0, 200, 255)" d="M0 12.8v998.4h1024v-998.4zM42.667 55.467h938.667v913.067h-938.667zM247.467 246.613c0-2.859 5.973-4.949 9.557-4.949 27.477-1.408 67.755-2.133 109.995-2.133 118.272 0 164.267 64.853 164.267 147.883 0 108.373-78.592 154.88-175.019 154.88-16.213 0-21.76-0.725-33.067-0.725v163.925c0 3.541-1.408 4.949-4.907 4.949h-65.877c-3.541 0-4.907-1.28-4.907-4.821zM323.2 473.259c9.813 0.683 17.579 0.683 34.56 0.683 49.92 0 96.853-17.579 96.853-85.163 0-54.187-33.536-81.664-90.539-81.664-16.896 0-33.067 0.683-40.832 1.408zM690.432 422.571c-33.792 0-45.056 16.896-45.056 30.976 0 15.488 7.68 26.027 52.779 49.28 66.901 32.427 87.979 63.36 87.979 109.099 0 68.267-52.053 104.96-122.453 104.96-37.376 0-69.12-7.808-87.467-18.347-2.773-1.408-3.413-3.499-3.413-7.040v-62.592c0-4.267 2.048-5.675 4.864-3.584 26.624 17.621 57.685 25.344 85.845 25.344 33.792 0 47.872-14.080 47.872-33.109 0-15.488-9.813-28.885-52.779-51.413-60.587-29.013-85.931-58.453-85.931-107.819 0-54.912 42.923-100.693 117.547-100.693 36.693 0 62.464 5.632 76.544 11.947 3.499 2.133 4.267 5.632 4.267 8.448v58.453c0 3.541-2.133 5.675-6.4 4.267-18.944-11.264-46.933-18.347-74.197-18.176z" /></g></svg>